<svg xmlns="http://www.w3.org/2000/svg" viewBox="0 0 44 40"><defs><style>.cls-1{fill:#0b80e0;}</style></defs><title>Asset 1</title><g id="Layer_2" data-name="Layer 2"><g id="Шар_1" data-name="Шар 1"><path class="cls-1" d="M21.29,13.71a1,1,0,0,0,1.41,0l4-4a1,1,0,1,0-1.41-1.42L23,10.59V1a1,1,0,0,0-2,0v9.59L18.71,8.29a1,1,0,0,0-1.41,1.42ZM42,16H2a2,2,0,0,0-2,2v2a2,2,0,0,0,2,2h.4L6,39.24H6A1,1,0,0,0,7,40H37a1,1,0,0,0,1-.76h0L41.6,22H42a2,2,0,0,0,2-2V18a2,2,0,0,0-2-2M4.44,22h6.87l.63,4H5.28Zm1.26,6h6.56l.63,4H6.55ZM7.81,38,7,34h6.24l.63,4ZM21,38H15.84l-.63-4H21Zm0-6H14.89l-.63-4H21Zm0-6H13.95l-.63-4H21Zm7.16,12H23V34h5.79Zm.95-6H23V28h6.74ZM23,26V22h7.68l-.63,4ZM36.19,38h-6l.63-4H37Zm1.26-6H31.11l.63-4h6.56Zm1.26-6H32.05l.63-4h6.87ZM42,20H2V18H42Z"/></g></g></svg>